<svg id="Layer_1" data-name="Layer 1" xmlns="http://www.w3.org/2000/svg" viewBox="0 0 382.59 118.69"><defs><style>.cls-1{fill:none;}.cls-2{fill:#1c1c1c;}</style></defs><path class="cls-1" d="M408.45,404.62c0-2.7-1.66-4.06-5-4.06h-3.63v8.33h3.56a5.32,5.32,0,0,0,3.63-1.21A3.89,3.89,0,0,0,408.45,404.62Z" transform="translate(-104.18 -304.16)"/><polygon class="cls-1" points="261.44 107.26 267.79 107.26 264.61 97.21 261.44 107.26"/><path class="cls-1" d="M122,400.11a4.31,4.31,0,0,0-4,2.63,21.4,21.4,0,0,0,0,15,4.3,4.3,0,0,0,4,2.59q5.37,0,5.37-10.12C127.33,403.5,125.54,400.11,122,400.11Z" transform="translate(-104.18 -304.16)"/><path class="cls-2" d="M122,397.64a7,7,0,0,0-6.21,3.23c-1.42,2.16-2.14,5.29-2.14,9.38s.72,7.22,2.15,9.37a7.59,7.59,0,0,0,12.43,0c1.42-2.15,2.14-5.27,2.14-9.36s-.72-7.23-2.15-9.39A7,7,0,0,0,122,397.64Zm0,22.73a4.3,4.3,0,0,1-4-2.59,21.4,21.4,0,0,1,0-15,4.31,4.31,0,0,1,4-2.63c3.58,0,5.37,3.39,5.37,10.14S125.54,420.37,122,420.37Z" transform="translate(-104.18 -304.16)"/><polygon class="cls-2" points="46.91 118.22 49.73 118.22 49.73 106.8 58.89 106.8 58.89 104.34 49.73 104.34 49.73 96.4 59.78 96.4 59.78 93.94 46.91 93.94 46.91 118.22"/><polygon class="cls-2" points="114.69 96.23 122.21 96.23 122.21 118.22 125.02 118.22 125.02 96.23 132.5 96.23 132.5 93.94 114.69 93.94 114.69 96.23"/><polygon class="cls-2" points="162.99 103.7 154.67 103.7 154.67 93.94 151.85 93.94 151.85 118.22 154.67 118.22 154.67 106.18 162.99 106.18 162.99 118.22 165.81 118.22 165.81 93.94 162.99 93.94 162.99 103.7"/><polygon class="cls-2" points="190.74 106.38 200.12 106.38 200.12 103.92 190.74 103.92 190.74 96.4 200.49 96.4 200.49 93.94 187.91 93.94 187.91 118.22 200.6 118.22 200.6 115.76 190.74 115.76 190.74 106.38"/><path class="cls-2" d="M367.1,398.1l-7.93,24.29h2.93l2.71-8.51h8l2.69,8.51h3l-7.94-24.29Zm-1.48,13.32,3.17-10.05L372,411.42Z" transform="translate(-104.18 -304.16)"/><path class="cls-2" d="M409.91,408.4a5.91,5.91,0,0,0,1.46-3.95,5.77,5.77,0,0,0-2-4.67,8.26,8.26,0,0,0-5.47-1.68H397v24.29h2.83v-11H403l7.13,11h3.52l-7.76-11.64A7.29,7.29,0,0,0,409.91,408.4Zm-10.05.49v-8.33h3.63c3.3,0,5,1.36,5,4.06a3.89,3.89,0,0,1-1.4,3.06,5.32,5.32,0,0,1-3.63,1.21Z" transform="translate(-104.18 -304.16)"/><polygon class="cls-2" points="326.19 96.23 333.72 96.23 333.72 118.22 336.52 118.22 336.52 96.23 344.01 96.23 344.01 93.94 326.19 93.94 326.19 96.23"/><path class="cls-2" d="M479.55,410.84a8.4,8.4,0,0,0-1.76-1.33c-.58-.32-1.77-.89-3.56-1.72q-3.63-1.67-3.63-3.87a3.32,3.32,0,0,1,1.39-2.87,6,6,0,0,1,3.59-1,12.77,12.77,0,0,1,4.11.74l.64-2.41a16.39,16.39,0,0,0-4.82-.73,8.68,8.68,0,0,0-5.49,1.68,5.61,5.61,0,0,0-2.17,4.7,5.35,5.35,0,0,0,.41,2.1,5.92,5.92,0,0,0,1.17,1.74,7.36,7.36,0,0,0,1.53,1.21c.51.29,1.64.84,3.38,1.65a10.13,10.13,0,0,1,3.49,2.29,4.16,4.16,0,0,1,.95,2.75,4.26,4.26,0,0,1-1.46,3.43,5.72,5.72,0,0,1-3.86,1.25,11.94,11.94,0,0,1-4.83-1.26l-.59,2.43a11.58,11.58,0,0,0,5.49,1.24,8.6,8.6,0,0,0,5.62-2,6.72,6.72,0,0,0,2.38-5.5,6,6,0,0,0-.54-2.58A6.47,6.47,0,0,0,479.55,410.84Z" transform="translate(-104.18 -304.16)"/><path class="cls-2" d="M240.69,330.27c0-9,3.87-14.95,9.43-18.84v-5H226.05v43.71c0,11.36-4.66,18.85-17.15,18.85C198.34,369,191,364.33,191,350.6V306.43H179.29v18.51H167.16V306.43h-63v80.16h24.18V356.27h38.57c.8,26.46,21.47,32.48,41.06,32.48,16.14,0,29.21-3.56,36.31-13.45a31.94,31.94,0,0,1-5.88-14.94l11.38-.64a51.75,51.75,0,0,0,.32-5.72v-5.42C244.14,344.62,240.69,338.71,240.69,330.27Zm-73.8,8H128.25V324.94h38.64Zm8.43,18h-8.16v-18h8.16Z" transform="translate(-104.18 -304.16)"/><path class="cls-2" d="M462.81,352.41l-36.79-46H401v9.4a41.51,41.51,0,0,1,13,30.79c0,13.42-5.19,23.47-13,30.38v9.59h24.19V340.15l37.24,46.44h24.3V306.43h-24Z" transform="translate(-104.18 -304.16)"/><path class="cls-2" d="M368.18,304.16c-14.82,0-28.25,5.22-36.92,14.86V306.43H307v5.1a38.62,38.62,0,0,0-15.75-6.45l-.07,0c-.86-.16-1.68-.29-2.48-.4l-.21,0c-.73-.1-1.43-.18-2.09-.24l-.36,0-.53-.05-.55,0-.56,0-.5,0h-.34l-.68,0h-3.47l-1.16,0-.54,0-1.25,0-.47,0c-1.18.06-2.41.15-3.68.26l-.33,0-1.58.17-.45.06c-.53.06-1.07.13-1.6.21l-.36.05c-1.34.2-2.69.45-4.05.74l-.15,0c-.61.13-1.21.28-1.82.43l-.35.1c-.57.15-1.13.3-1.69.47l-.3.1a37.35,37.35,0,0,0-3.92,1.43l-.06,0c-.59.25-1.17.52-1.74.8l-.32.17c-.5.25-1,.52-1.48.81l-.31.17c-.56.34-1.11.69-1.64,1.07h0v37.15h0c.46.3.94.59,1.43.87l.26.15c.48.27,1,.53,1.49.78.08.05.17.08.25.12q.75.36,1.53.69l.13.06c.55.22,1.11.44,1.69.64l.34.13c.58.2,1.16.39,1.76.57l.21.06c.56.17,1.14.33,1.72.48l.31.08c.62.15,1.25.3,1.9.44l.4.08c.66.14,1.33.27,2,.38l11.36,1.94,1,.17,1.8.27c1.06.15,2.21.33,3.38.54,5.16.92,10.69,2.57,10.69,6.62,0,2.39-1.42,4-3.7,5-.28.13-.58.24-.89.35a16.89,16.89,0,0,1-2,.53l-1.09.19c-.75.11-1.53.19-2.33.24s-1.65.08-2.5.08a26.62,26.62,0,0,1-11.05-2.08,16.14,16.14,0,0,1-3.62-2.24c-.33-.28-.65-.57-.94-.86a11.81,11.81,0,0,1-3.24-5.83l-12.47.7a33.21,33.21,0,0,1-5.59,15.75h0a27.23,27.23,0,0,0,2.49,2.83l.12.12a28.4,28.4,0,0,0,3.76,3.1l.1.07a31.44,31.44,0,0,0,3.13,1.9h0c.34.19.7.37,1.05.54l.14.07q1.59.76,3.24,1.38l.17.07,1,.37.26.08c1.05.35,2.12.66,3.19.94l.4.1.94.22.47.11c.59.13,1.18.25,1.78.36l.37.07.83.14.65.1.78.12.78.1.8.1,1.2.13.62.06.89.07.6,0,1.12.07.32,0,1.41.06h.46l1,0h1.85c.86,0,1.71,0,2.54,0l.83,0,1.61-.07,1-.07,1.36-.11,1-.09,1.22-.14,1-.13,1.1-.17,1-.17.87-.17c.79-.15,1.56-.32,2.31-.5l.55-.14,1.23-.34.55-.16,1.2-.39.47-.17c.41-.14.82-.29,1.21-.45l.33-.13c.43-.18.86-.35,1.27-.54h0a30.12,30.12,0,0,0,3.85-2.13v3.87h24.3V374.05c8.11,9.11,20.68,14.7,36.24,14.7,12.08,0,24.55-3.81,33.54-11.75V315.83C393.34,308.69,382.32,304.16,368.18,304.16Zm-51.76,25-8.1.53V313.78A27.51,27.51,0,0,1,316.42,329.14Zm-25.14,7.17h-.08l-.89-.12-3.15-.42-6.28-.83c-10-1.36-15-2.27-15-6.47,0-2.24,2-3.76,4.85-4.66a19.28,19.28,0,0,1,2-.5,28.68,28.68,0,0,1,5.54-.52q1.59,0,3,.12c.95.08,1.85.2,2.7.35a13.87,13.87,0,0,1,6.14,2.57,9.08,9.08,0,0,1,2.47,3,10.32,10.32,0,0,1,.76,1.9l13.59-.88V341C301.62,338.08,295.57,336.89,291.28,336.31Zm18.67,43c-.51.51-1.06,1-1.63,1.46v-38c5.11,3.69,9,9.47,9,18.65C317.33,370.24,313.7,375.69,310,379.32Zm20.27-55.61v45C317.63,347.45,325.54,330.69,330.22,323.71Zm37.28,45.5c-13.51,0-21.8-9.76-21.8-22.81,0-13.63,8.63-22.71,22.37-22.71s21.45,10.21,21.45,23.05C389.52,360.14,381,369.21,367.5,369.21Z" transform="translate(-104.18 -304.16)"/></svg>